<svg
                        xmlns="http://www.w3.org/2000/svg"
                        width="12rem"
                        height="2rem"
                        viewBox="0 0 217 30"
                        fill="none"
                    >
                        <path
                            d="M194.252 15.7964V29.469H188.632V0.530945H195.004L200.712 15.0442L202.393 19.6017L204.03 15.0442L209.606 0.530945H216.022V29.469H210.314V15.7964C210.314 13.9823 210.491 11.5486 210.668 9.469L209.252 13.3628L203.809 26.7699H200.668L195.225 13.3628L193.898 9.51325C194.119 11.7699 194.252 13.938 194.252 15.7964Z"
                            fill="#B7BAB6"
                        />
                        <path
                            d="M181.298 0.530945V29.469H175.28V0.530945H181.298Z"
                            fill="#B7BAB6"
                        />
                        <path
                            d="M151.68 13.8938L147.211 29.469H140.265L134.335 0.530945H140.486L143.096 15.4867C143.45 17.8761 143.893 20.354 144.247 22.7433C144.734 20.2655 145.176 17.9203 145.707 15.4867L150.22 0.530945H155.397L159.026 15.4867C159.557 17.8761 160.043 20.354 160.574 22.7876C160.928 20.3097 161.282 17.9203 161.636 15.4867L165.132 0.530945H170.928L164.335 29.469H157.256L153.583 13.8938C153.229 12.3009 152.919 10.6637 152.654 9.15926C152.344 10.8407 152.034 12.2566 151.68 13.8938Z"
                            fill="#B7BAB6"
                        />
                        <path
                            d="M109.603 25.6637V25.6195L109.337 25.3097L112.877 21.1947L113.231 21.4602C115.266 23.3186 118.187 24.646 120.93 24.646C124.381 24.646 125.886 23.3628 125.886 21.4602C125.886 19.5133 124.204 18.8938 121.328 17.7876L117.08 16.1062C113.983 14.9115 110.753 12.6549 110.753 8.31858C110.753 3.53982 115.133 0 121.417 0C125.178 0 128.673 1.41593 131.018 3.76106L131.328 4.11504L128.187 8.00885L127.833 7.74336C125.974 6.23894 123.983 5.35398 121.417 5.35398C118.585 5.35398 116.992 6.54867 116.992 8.23009C116.992 10.0442 118.983 10.7965 121.638 11.7699L125.93 13.3186C129.514 14.7788 132.036 16.9911 132.036 21.2832C132.036 26.0619 127.965 30 120.841 30C116.505 30 112.434 28.4513 109.603 25.6637Z"
                            fill="#B7BAB6"
                        />
                        <path
                            d="M89.2209 18.7168V29.469H82.7165V18.7168L73.6014 0.530945H80.0616L83.6014 8.18581C84.3979 10.0885 85.1944 11.9469 86.0351 13.8053C86.9643 11.7699 87.7165 10.1327 88.5129 8.18581L92.097 0.530945H98.4245L89.2209 18.7168Z"
                            fill="#B7BAB6"
                        />
                        <path
                            d="M50.3606 25.6637V25.6195L50.0951 25.3097L53.6349 21.1947L53.9889 21.4602C56.0243 23.3186 58.9447 24.646 61.688 24.646C65.1394 24.646 66.6438 23.3628 66.6438 21.4602C66.6438 19.5133 64.9624 18.8938 62.0863 17.7876L57.8385 16.1062C54.7411 14.9115 51.5111 12.6549 51.5111 8.31858C51.5111 3.53982 55.8916 0 62.1748 0C65.9358 0 69.4314 1.41593 71.7765 3.76106L72.0863 4.11504L68.9447 8.00885L68.5907 7.74336C66.7323 6.23894 64.7411 5.35398 62.1748 5.35398C59.3429 5.35398 57.75 6.54867 57.75 8.23009C57.75 10.0442 59.7411 10.7965 62.396 11.7699L66.688 13.3186C70.2721 14.7788 72.7942 16.9911 72.7942 21.2832C72.7942 26.0619 68.7234 30 61.5995 30C57.2633 30 53.1925 28.4513 50.3606 25.6637Z"
                            fill="#B7BAB6"
                        />
                        <path
                            d="M38.6502 17.1681L35.2873 5.84068L31.9687 17.1681H38.6502ZM38.9156 0.530945L48.8714 29.469H42.4997L40.1546 21.8584H30.4201L28.0749 29.469H21.8802L31.836 0.530945H38.9156Z"
                            fill="#B7BAB6"
                        />
                        <path
                            d="M19.7066 24.2478V29.469H0.0605469V0.530945H19.2641V5.75218H6.12249V11.8141H17.3614V17.0354H6.12249V24.2478H19.7066Z"
                            fill="#B7BAB6"
                        />
                    </svg>